<?xml version="1.0" encoding="UTF-8" standalone="no"?>
<!DOCTYPE svg PUBLIC "-//W3C//DTD SVG 1.1//EN" "http://www.w3.org/Graphics/SVG/1.1/DTD/svg11.dtd">
<svg width="100%" height="100%" viewBox="0 0 42 42" version="1.1" xmlns="http://www.w3.org/2000/svg" xmlns:xlink="http://www.w3.org/1999/xlink" xml:space="preserve" xmlns:serif="http://www.serif.com/" style="fill-rule:evenodd;clip-rule:evenodd;stroke-linejoin:round;stroke-miterlimit:2;">
    <g>
        <circle cx="32.3" cy="33.1" r="3.6" style="fill:none;"/>
        <path d="M10.1,11.6L32.8,11.6L32.8,20.2L34.5,18.5L34.5,9.9L8.4,9.9L8.4,32L20.8,32L22.5,30.3L10.1,30.3L10.1,27.8L10.1,27L10.1,11.6Z" style="fill:rgb(61,100,128);fill-rule:nonzero;"/>
        <path d="M37.3,33.3C37.3,32.9 37.3,32.5 37.2,32.2L38.5,31.2L38.3,30.7C38.2,30.5 38.1,30.3 38,30.1L37.8,29.6L36.2,30C36.1,29.9 36,29.7 35.9,29.6C35.8,29.4 35.6,29.3 35.5,29.2L35.9,27.6L35.5,27.4C35.3,27.3 35.1,27.2 34.9,27.1L34.4,26.9L33.4,28.2C33,28.1 32.7,28.1 32.3,28.1L31.6,26.7L31.1,26.8C30.9,26.8 30.7,26.9 30.5,26.9L30,27L30.1,28.6C29.8,28.8 29.5,29 29.2,29.2L27.7,28.6L27.4,29C27.3,29.2 27.1,29.4 27,29.5L26.7,29.9L27.8,31.1C27.7,31.5 27.5,31.8 27.5,32.2L26,32.7L26,33.9L26.1,34.4L27.7,34.6C27.8,35 28,35.3 28.1,35.6L27.2,36.9L28.2,38L29.6,37.4L29.7,37.3C30,37.5 30.4,37.7 30.7,37.8L30.9,39.4L31.4,39.5C31.6,39.5 31.8,39.6 32,39.6L32.5,39.6L33,38C33.4,38 33.8,37.9 34.1,37.7L35.3,38.8L35.7,38.5C35.9,38.4 36.1,38.3 36.3,38.1L36.7,37.8L36,36.4C36.3,36.1 36.5,35.8 36.7,35.5L38.3,35.6L38.5,35.1C38.6,34.9 38.6,34.7 38.7,34.5L38.8,34L37.3,33.3ZM32.3,36.7C30.3,36.7 28.7,35.1 28.7,33.1C28.7,31.1 30.3,29.5 32.3,29.5C34.3,29.5 35.9,31.1 35.9,33.1C35.9,35.1 34.3,36.7 32.3,36.7Z" style="fill:rgb(61,100,128);fill-rule:nonzero;"/>
        <g transform="matrix(1.1429,0,0,1.1429,-2.58301,-2.58849)">
            <circle cx="18.909" cy="20.179" r="5.995" style="fill:rgb(61,100,128);"/>
        </g>
        <g transform="matrix(1,0,0,0.961103,-0.247773,0.987946)">
            <rect x="19.039" y="14.795" width="0.577" height="5.812" style="fill:white;"/>
        </g>
        <g transform="matrix(0.618621,0,0,0.160499,7.11855,11.2428)">
            <rect x="19.039" y="14.795" width="0.577" height="5.812" style="fill:white;"/>
        </g>
        <g transform="matrix(0.618621,0,0,0.160499,7.09917,24.0336)">
            <rect x="19.039" y="14.795" width="0.577" height="5.812" style="fill:white;"/>
        </g>
        <g transform="matrix(0.000232054,0.618621,-0.160499,6.02054e-05,28.2545,8.50355)">
            <rect x="19.039" y="14.795" width="0.577" height="5.812" style="fill:white;"/>
        </g>
        <g transform="matrix(0.000232054,0.618621,-0.160499,6.02054e-05,15.4837,8.54321)">
            <rect x="19.039" y="14.795" width="0.577" height="5.812" style="fill:white;"/>
        </g>
        <g transform="matrix(0.000650622,1,-0.653956,0.000425478,32.8123,1.16954)">
            <rect x="19.039" y="14.795" width="0.577" height="5.812" style="fill:white;"/>
        </g>
    </g>
</svg>
